<svg width="267" height="126" viewBox="0 0 267 126" fill="none" xmlns="http://www.w3.org/2000/svg">
<path d="M44.9568 28.7589V0.446341H52.4965C54.9584 0.446341 56.9238 1.06074 58.3995 2.28594C59.8718 3.51473 60.6097 5.12438 60.6097 7.11488C60.6097 8.55207 60.2215 9.78086 59.4487 10.7941C58.6723 11.8001 57.6722 12.569 56.4412 13.0936C55.2172 13.611 53.9023 13.8697 52.4965 13.8697H48.286V28.7589H44.9568ZM48.286 13.2804H51.8111C52.5839 13.2804 53.3498 13.0648 54.1052 12.6337C54.8605 12.2025 55.49 11.5378 55.9936 10.636C56.5041 9.72697 56.7629 8.55207 56.7629 7.11488C56.7629 4.76868 56.2593 3.16262 55.2522 2.30031C54.252 1.43081 53.105 0.992471 51.8111 0.992471H48.286V13.2804Z" fill="#A41212"/>
<path d="M71.7217 29.19C69.0535 29.19 66.9098 28.4068 65.2871 26.833C63.6715 25.2629 62.8147 23.197 62.7133 20.6388C62.7133 18.7345 63.1085 17.0674 63.9023 15.6374C64.6926 14.211 65.7487 13.1007 67.0636 12.3031C68.3785 11.5091 69.8403 11.1102 71.4559 11.1102C72.9282 11.1102 74.2711 11.5198 75.4846 12.3318C76.6945 13.1474 77.6597 14.2684 78.3801 15.6949C79.1075 17.1141 79.4712 18.7273 79.4712 20.5382H66.5601C66.6335 23.6066 67.0986 25.7228 67.9589 26.8905C68.8157 28.0618 69.9802 28.6439 71.4559 28.6439C72.6869 28.6439 73.9074 28.3385 75.1209 27.7241C76.3308 27.1133 77.324 25.942 78.1004 24.2174L78.6739 24.318C78.0094 25.8055 77.0722 26.9875 75.8622 27.8678C74.6488 28.7517 73.2674 29.19 71.7217 29.19ZM66.5601 19.992H75.6244C75.5475 14.4373 74.1592 11.6564 71.4559 11.6564C69.6655 11.6564 68.3995 12.3534 67.6651 13.7403C66.9272 15.1308 66.5601 17.2147 66.5601 19.992Z" fill="#A41212"/>
<path d="M82.9389 28.7589V11.6564H86.2681V13.611C86.7892 12.8852 87.4082 12.3031 88.1286 11.872C88.8559 11.4408 89.6708 11.2252 90.5765 11.2252C92.5419 11.2252 94.0736 11.8217 95.1647 13.0073C96.2557 14.1966 96.8013 15.8925 96.8013 18.095V28.7589H93.6399V16.9596C93.6399 15.12 93.3811 13.7906 92.8706 12.9642C92.367 12.1307 91.6011 11.7139 90.5765 11.7139C89.5973 11.7139 88.751 11.9798 88.0446 12.5043C87.3452 13.0217 86.7507 13.6972 86.2681 14.5308V28.7589H82.9389Z" fill="#A41212"/>
<path d="M106.233 29.19C104.443 29.19 103.229 28.7085 102.596 27.7384C101.96 26.7611 101.645 25.3886 101.645 23.6137V12.2025H98.6375V11.6563H101.645V6.19503H104.96V11.6563H110.234V12.2025H104.96V24.5335C104.96 25.5108 105.079 26.427 105.324 27.2785C105.576 28.1229 106.051 28.5433 106.751 28.5433C107.524 28.5433 108.219 28.2055 108.835 27.5229C109.45 26.833 109.877 26.039 110.122 25.1371L110.597 25.2952C110.318 26.445 109.762 27.3863 108.933 28.1121C108.111 28.8307 107.212 29.19 106.233 29.19Z" fill="#A41212"/>
<path d="M121.984 28.7589V27.4079C121.207 28.2056 120.319 28.7265 119.312 28.9745C118.312 29.2224 117.34 29.2367 116.388 29.0176C115.444 28.8056 114.64 28.4355 113.968 27.8966C113.304 27.3504 112.923 26.6821 112.821 25.8845C112.671 24.7743 112.877 23.8509 113.437 23.1107C114.003 22.3634 114.759 21.7562 115.703 21.2855C116.654 20.8184 117.605 20.416 118.556 20.0783C119.508 19.7334 120.312 19.3741 120.976 19.0004C121.648 18.6195 121.984 18.174 121.984 17.6638C121.984 16.0075 121.917 14.7463 121.788 13.884C121.665 13.0145 121.396 12.4253 120.976 12.1163C120.557 11.8109 119.889 11.6564 118.976 11.6564C118.277 11.6564 117.637 11.7785 117.06 12.0157C116.479 12.2456 116.192 12.454 116.192 12.6337C116.192 12.6624 116.241 12.7055 116.346 12.763C116.448 12.8205 116.518 12.8852 116.556 12.9498C116.937 13.3523 117.13 13.805 117.13 14.3008C117.13 14.7715 116.969 15.1775 116.654 15.5224C116.346 15.8673 115.944 16.0398 115.451 16.0398C114.92 16.0398 114.503 15.8458 114.206 15.4505C113.905 15.0481 113.759 14.6134 113.759 14.1427C113.759 13.4924 114.056 12.9427 114.654 12.4899C115.248 12.0408 115.969 11.6995 116.808 11.4695C117.654 11.2324 118.417 11.1102 119.088 11.1102C120.802 11.1102 122.267 11.5989 123.48 12.5762C124.69 13.5535 125.299 15.2314 125.299 17.6063V28.7589H121.984ZM121.984 26.5456V19.1297C121.207 19.5609 120.312 20.0495 119.298 20.5957C118.28 21.1346 117.427 21.7993 116.738 22.5934C116.056 23.391 115.766 24.4006 115.871 25.6258C115.972 26.4127 116.374 27.0414 117.074 27.5085C117.78 27.9792 118.598 28.1624 119.522 28.0547C120.452 27.9505 121.274 27.4474 121.984 26.5456Z" fill="#A41212"/>
<path d="M137.783 29.1326C135.041 29.1326 132.852 28.3062 131.222 26.6462C129.589 24.9899 128.774 22.8053 128.774 20.0927C128.774 17.3908 129.589 15.2134 131.222 13.5535C132.852 11.8971 135.041 11.0671 137.783 11.0671C139.535 11.0671 141.007 11.5702 142.203 12.5762V0.446339H145.588V28.7589H142.203V27.681C141.045 28.6511 139.573 29.1326 137.783 29.1326ZM137.517 28.6008C138.328 28.6008 139.154 28.4966 139.993 28.2846C140.839 28.0654 141.577 27.6307 142.203 26.9768V13.2804C141.577 12.5906 140.839 12.1414 139.993 11.9294C139.154 11.7103 138.328 11.5989 137.517 11.5989C136.006 11.5989 134.821 12.2133 133.964 13.4385C133.104 14.6673 132.656 16.8841 132.621 20.0927C132.656 23.276 133.104 25.4893 133.964 26.7325C134.821 27.9792 136.006 28.6008 137.517 28.6008Z" fill="#A41212"/>
<path d="M169.707 29.19C167.951 29.19 166.364 28.7912 164.937 27.9971C163.517 27.2031 162.377 26.1791 161.51 24.9216C160.649 23.6568 160.188 22.3203 160.125 20.9118C160.086 19.9345 160.268 19.18 160.67 18.6411C161.08 18.0949 161.583 17.8219 162.181 17.8219C162.804 17.8219 163.276 18.0338 163.594 18.4542C163.909 18.8674 164.069 19.2878 164.069 19.7189C164.069 20.3729 164.042 20.9046 163.986 21.3142C163.937 21.7274 163.888 22.1334 163.832 22.5358C163.783 22.9311 163.762 23.4916 163.762 24.2173C163.762 24.8317 164.021 25.4821 164.545 26.1719C165.077 26.8546 165.794 27.4366 166.699 27.9253C167.612 28.4067 168.616 28.6439 169.707 28.6439C170.658 28.6439 171.623 28.5002 172.602 28.2127C173.589 27.9253 174.414 27.4618 175.078 26.8186C175.75 26.1683 176.085 25.3024 176.085 24.2173C176.085 22.6292 175.729 21.2675 175.022 20.1357C174.323 18.9968 173.407 18.0087 172.281 17.1751C171.162 16.3416 169.966 15.587 168.7 14.9044C167.441 14.2145 166.245 13.5211 165.119 12.8205C164 12.1126 163.083 11.3366 162.377 10.4922C161.678 9.64069 161.328 8.62028 161.328 7.43101C161.328 6.20581 161.625 5.02732 162.223 3.89554C162.818 2.75657 163.734 1.82599 164.965 1.1074C166.196 0.381619 167.741 0.0151367 169.609 0.0151367C171.008 0.0151367 172.323 0.288202 173.554 0.834332C174.784 1.37328 175.778 2.0775 176.533 2.947C177.288 3.80931 177.666 4.71114 177.666 5.6489C177.666 6.40702 177.477 6.95674 177.107 7.30167C176.743 7.64659 176.295 7.81905 175.764 7.81905C175.239 7.81905 174.784 7.61426 174.393 7.20106C174.008 6.78069 173.819 6.11958 173.819 5.21775C173.819 3.95302 173.501 2.86076 172.868 1.94097C172.232 1.02117 171.109 0.561267 169.497 0.561267C167.706 0.561267 166.245 1.04991 165.119 2.0272C164 2.9973 163.44 4.06081 163.44 5.21775C163.44 6.18785 163.797 7.06812 164.517 7.86217C165.234 8.65981 166.161 9.42151 167.301 10.1473C168.448 10.8659 169.668 11.5809 170.966 12.2887C172.27 12.9893 173.491 13.7474 174.631 14.5595C175.778 15.3643 176.708 16.2769 177.428 17.2901C178.145 18.2961 178.505 19.4531 178.505 20.7537C178.505 22.4137 178.198 23.7934 177.582 24.8928C176.967 25.9959 176.19 26.8618 175.26 27.4941C174.337 28.1193 173.372 28.554 172.365 28.802C171.364 29.0607 170.48 29.19 169.707 29.19Z" fill="#A41212"/>
<path d="M187.414 29.19C185.623 29.19 184.41 28.7085 183.777 27.7384C183.14 26.7611 182.826 25.3886 182.826 23.6137V12.2025H179.818V11.6563H182.826V6.19503H186.141V11.6563H191.414V12.2025H186.141V24.5335C186.141 25.5108 186.26 26.427 186.504 27.2785C186.756 28.1229 187.232 28.5433 187.931 28.5433C188.704 28.5433 189.4 28.2055 190.015 27.5229C190.631 26.833 191.058 26.039 191.302 25.1371L191.778 25.2952C191.498 26.445 190.942 27.3863 190.113 28.1121C189.292 28.8307 188.393 29.19 187.414 29.19Z" fill="#A41212"/>
<path d="M192.421 39.854C191.676 39.7102 191.162 39.3222 190.882 38.6898C190.603 38.0575 190.582 37.4323 190.812 36.8215C191.036 36.2071 191.536 35.9017 192.309 35.9017C192.869 35.9017 193.288 36.0526 193.568 36.3616C193.855 36.667 194.072 37.0083 194.212 37.382C194.351 37.7628 194.505 38.0898 194.673 38.3593C194.848 38.6359 195.135 38.7365 195.526 38.6611C196.009 38.6216 196.439 38.3162 196.813 37.7413C197.184 37.1664 197.653 36.1963 198.212 34.8382C198.772 33.4872 199.541 31.6045 200.52 29.19L193.414 11.6564H197.051L202.269 24.9216L207.738 11.7139H208.27L198.212 36.1748C197.793 37.1808 197.359 37.9461 196.911 38.4743C196.471 38.9988 196.009 39.3869 195.526 39.6384C194.995 39.8863 194.463 40.012 193.932 40.012C193.407 40.012 192.904 39.9581 192.421 39.854Z" fill="#A41212"/>
<path d="M211.479 28.7589V0.446341H214.808V28.7589H211.479Z" fill="#A41212"/>
<path d="M227.287 29.19C224.619 29.19 222.475 28.4068 220.852 26.833C219.237 25.2629 218.38 23.197 218.278 20.6388C218.278 18.7345 218.674 17.0674 219.467 15.6374C220.258 14.211 221.314 13.1007 222.629 12.3031C223.944 11.5091 225.405 11.1102 227.021 11.1102C228.493 11.1102 229.836 11.5198 231.05 12.3318C232.26 13.1474 233.225 14.2684 233.945 15.6949C234.673 17.1141 235.036 18.7273 235.036 20.5382H222.125C222.199 23.6066 222.664 25.7228 223.524 26.8905C224.381 28.0618 225.545 28.6439 227.021 28.6439C228.252 28.6439 229.472 28.3385 230.686 27.7241C231.896 27.1133 232.889 25.942 233.665 24.2174L234.239 24.318C233.575 25.8055 232.637 26.9875 231.427 27.8678C230.214 28.7517 228.832 29.19 227.287 29.19ZM222.125 19.992H231.19C231.113 14.4373 229.724 11.6564 227.021 11.6564C225.231 11.6564 223.965 12.3534 223.23 13.7403C222.492 15.1308 222.125 17.2147 222.125 19.992Z" fill="#A41212"/>
<path d="M244.043 29.19C242.952 29.19 241.959 28.9457 241.064 28.4571C240.168 27.9684 239.441 27.3325 238.881 26.5456C238.322 25.7516 238.021 24.918 237.986 24.0449C237.948 23.4341 238.077 22.9598 238.378 22.6221C238.675 22.2772 239.053 22.1047 239.511 22.1047C239.892 22.1047 240.203 22.234 240.448 22.4927C240.7 22.7442 240.826 23.0101 240.826 23.2976C240.826 23.912 240.745 24.3719 240.588 24.6773C240.427 24.9863 240.35 25.4605 240.35 26.1001C240.35 26.6857 240.707 27.257 241.427 27.8103C242.155 28.3672 243.025 28.6439 244.043 28.6439C244.917 28.6439 245.697 28.4391 246.379 28.0259C247.068 27.6163 247.414 26.9732 247.414 26.1001C247.414 25.1731 247.124 24.3575 246.547 23.6569C245.966 22.949 245.246 22.2987 244.379 21.7023C243.519 21.0987 242.651 20.5094 241.777 19.9345C240.899 19.3597 240.168 18.7345 239.581 18.0518C239 17.362 238.714 16.5823 238.714 15.7092C238.714 14.5595 239.231 13.5067 240.266 12.5474C241.308 11.5917 242.69 11.1102 244.407 11.1102C245.739 11.1102 246.904 11.4767 247.904 12.2025C248.911 12.9211 249.415 13.7331 249.415 14.6313C249.415 15.102 249.264 15.5296 248.967 15.9104C248.666 16.2841 248.327 16.4709 247.946 16.4709C247.414 16.4709 247.051 16.2554 246.855 15.8242C246.666 15.393 246.575 14.9044 246.575 14.3583C246.575 13.5642 246.456 12.9175 246.225 12.4181C246.001 11.9115 245.375 11.6564 244.351 11.6564C243.267 11.6564 242.49 11.9941 242.015 12.6624C241.539 13.3235 241.301 13.8912 241.301 14.3583C241.301 15.0876 241.599 15.7308 242.197 16.2841C242.791 16.841 243.54 17.362 244.435 17.8506C245.33 18.3393 246.215 18.8674 247.093 19.4315C247.967 19.9884 248.705 20.6244 249.303 21.343C249.897 22.0616 250.198 22.9311 250.198 23.9443C250.198 24.9899 249.967 25.8558 249.512 26.5456C249.065 27.2283 248.505 27.76 247.834 28.1409C247.162 28.5145 246.484 28.7804 245.806 28.9457C245.124 29.1074 244.536 29.19 244.043 29.19Z" fill="#A41212"/>
<path d="M37.1206 97.2199C34.7041 96.1852 33.2458 94.6294 32.7423 92.5491C35.463 91.6796 37.7675 90.2208 39.6525 88.18C41.5444 86.132 42.4921 83.5487 42.4921 80.4336C42.4921 78.9389 42.2123 77.5844 41.6528 76.3664C41.1002 75.1519 40.3239 74.1028 39.3167 73.2189C38.3096 72.3387 37.1241 71.6524 35.7637 71.1638C34.3999 70.6679 32.8891 70.4164 31.2315 70.4164C28.8605 70.4164 26.6049 70.7829 24.4612 71.5087C22.314 72.238 20.4221 73.2872 18.782 74.6561C17.1489 76.0286 15.8375 77.7245 14.8513 79.7437C13.8721 81.7558 13.3825 84.0625 13.3825 86.6566C13.3825 88.9849 13.8197 91.1083 14.6974 93.0233C15.5822 94.942 16.8936 96.7277 18.6281 98.384C20.3697 100.04 22.5518 101.632 25.1746 103.156C27.7939 104.679 30.8434 106.192 34.3229 107.697C34.3229 107.956 34.246 108.236 34.0991 108.545C33.9488 108.861 33.7984 109.095 33.6515 109.249C32.0359 108.624 30.2838 107.873 28.3919 106.993C26.4965 106.12 24.5941 105.114 22.6847 103.975C20.7718 102.832 18.9219 101.549 17.1314 100.123C15.3409 98.7038 13.7637 97.1121 12.4034 95.3516C11.0395 93.591 9.94492 91.658 9.11612 89.5597C8.28382 87.4614 7.87116 85.1727 7.87116 82.69C7.87116 79.5857 8.54959 76.8694 9.91345 74.5411C11.2738 72.2057 13.0888 70.341 15.3549 68.9505C14.04 68.0702 12.879 66.9959 11.8718 65.7312C10.8646 64.4593 10.3611 63.0437 10.3611 61.4915C10.3611 59.8351 10.9766 58.5417 12.2075 57.6111C13.4455 56.6733 14.9247 55.9979 16.6418 55.5847L30.0146 52.1642C30.9728 51.9055 31.7666 51.557 32.3926 51.115C33.0255 50.6767 33.3438 50.0192 33.3438 49.1461C33.3438 48.5245 33.1514 47.9676 32.7702 47.4789C32.3961 46.9831 31.9344 46.7316 31.3854 46.7316H3.03123C2.8284 46.7316 2.56263 46.6166 2.2339 46.3867C1.90868 46.1495 1.58345 45.837 1.25472 45.4525C0.929498 45.0609 0.65323 44.6046 0.429418 44.0872C0.198612 43.5698 0.0797119 43.0021 0.0797119 42.3769H28.5878C29.2382 42.3769 30.1195 42.7183 31.2315 43.3973C32.3401 44.0692 33.4207 44.9136 34.4768 45.9268C35.5399 46.9328 36.4561 48.0071 37.2325 49.1461C38.0158 50.2779 38.4075 51.3126 38.4075 52.2504C38.4075 53.5439 37.9109 54.5427 36.9248 55.2397C35.9456 55.9404 34.802 56.4434 33.4976 56.7488L20.1109 60.1693C18.803 60.5358 17.6944 61.0424 16.7817 61.6927C15.8759 62.3358 15.4248 63.3024 15.4248 64.5958C15.4248 65.9396 15.9284 67.0786 16.9355 68.0163C19.8626 66.5145 23.1393 65.7599 26.7693 65.7599C29.49 65.7599 32.0988 66.3851 34.5887 67.6283C37.0856 68.8643 39.3063 70.4308 41.2471 72.3279C43.1845 74.2178 44.7337 76.2765 45.8912 78.5078C47.0452 80.7318 47.6258 82.8481 47.6258 84.8601C47.6258 86.3189 47.3355 87.7058 46.7585 89.028C46.178 90.343 45.4086 91.543 44.4504 92.6353C43.4992 93.7204 42.3942 94.6617 41.1352 95.4666C39.8763 96.2714 38.5369 96.857 37.1206 97.2199ZM41.429 46.7316C40.9813 46.7316 40.5792 46.5807 40.226 46.2717C39.8693 45.9555 39.5685 45.5675 39.3167 45.1076C39.065 44.6405 38.8586 44.159 38.7013 43.6704C38.5509 43.1746 38.4774 42.7434 38.4774 42.3769H51.5565C52.0111 42.3769 52.4167 42.535 52.7734 42.8512C53.1266 43.1602 53.4309 43.5482 53.6827 44.0153C53.9345 44.486 54.1338 44.9639 54.2842 45.4525C54.431 45.9411 54.508 46.3687 54.508 46.7316H41.429Z" fill="#A41212"/>
<path d="M21.3208 28.7093C19.1036 28.7093 17.2012 28.9968 15.6136 29.5717C14.0294 30.1393 12.4802 30.8364 10.9695 31.6699C10.2141 30.9909 9.53568 30.2004 8.92719 29.2986C8.3222 28.3896 7.91654 27.4949 7.71022 26.6111C9.17548 25.7416 10.7422 25.0589 12.4103 24.5702C14.0714 24.0744 15.7814 23.8229 17.544 23.8229C20.8662 23.8229 23.7093 24.678 26.0768 26.3811C28.4478 28.0878 30.4656 30.3405 32.1337 33.1359C30.623 28.4327 28.6331 24.811 26.1607 22.2707C23.6918 19.7341 20.6423 18.4622 17.0124 18.4622C14.5994 18.4622 12.5222 18.7353 10.7876 19.2814C9.04609 19.8203 7.31505 20.4743 5.59799 21.2503C4.84262 20.6395 4.16419 19.8383 3.55571 18.8502C2.95071 17.8658 2.54855 16.9316 2.35272 16.0477C3.80749 15.2717 5.42314 14.6537 7.19265 14.1938C8.95517 13.7267 10.8156 13.4895 12.774 13.4895C15.8514 13.4895 18.677 14.1794 21.2508 15.5591C23.8177 16.9316 26.0698 18.8574 28.0072 21.3366C29.948 23.8193 31.5882 26.7943 32.931 30.2615C34.2669 33.7323 35.2811 37.5624 35.9805 41.759C35.8895 41.8668 35.7007 41.971 35.4209 42.0752C35.1412 42.183 34.7775 42.2333 34.3298 42.2333C33.8752 40.3182 33.3052 38.5469 32.6233 36.9157C31.9449 35.2773 31.0846 33.8509 30.0494 32.6329C29.0143 31.4184 27.7938 30.4591 26.3845 29.7585C24.9787 29.0615 23.2896 28.7093 21.3208 28.7093Z" fill="#A41212"/>
<path d="M100.922 60.7154C100.062 61.0819 99.3552 61.5059 98.7957 61.9945C98.2431 62.4831 97.9703 63.094 97.9703 63.8197C97.9703 64.4449 98.1697 64.991 98.5718 65.4581C98.981 65.918 99.537 66.148 100.236 66.148C100.691 66.148 101.181 66.0725 101.705 65.918C102.237 65.7671 102.73 65.5839 103.188 65.3719L110.364 62.4257C110.923 62.167 111.553 61.9622 112.252 61.8077C112.959 61.646 113.616 61.5634 114.225 61.5634C115.127 61.5634 116.477 62.0448 118.267 63.0005C120.058 63.9599 121.855 65.2677 123.667 66.9241C125.485 68.584 127.059 70.5278 128.395 72.759C129.727 74.9831 130.395 77.3365 130.395 79.8156C130.395 81.9929 129.951 84.0912 129.066 86.1105C128.188 88.1333 126.944 89.919 125.331 91.4712C123.716 93.0233 121.726 94.2665 119.358 95.1935C116.987 96.1241 114.344 96.5876 111.427 96.5876C109.105 96.5876 106.818 96.178 104.573 95.3516C102.335 94.518 100.229 93.3539 98.2641 91.8592C96.3057 90.3574 94.5327 88.5824 92.9486 86.5416C91.3609 84.4936 90.06 82.2516 89.0458 79.8156C89.455 79.406 89.9131 79.1976 90.4167 79.1976C91.3679 81.163 92.487 82.9487 93.7739 84.5583C95.0608 86.1608 96.4596 87.5189 97.9703 88.6399C99.4811 89.7537 101.079 90.6196 102.768 91.2412C104.454 91.8556 106.157 92.161 107.874 92.161C110.035 92.161 112.14 91.8017 114.183 91.0831C116.225 90.3574 118.05 89.3082 119.666 87.9357C121.278 86.5668 122.576 84.8996 123.555 82.9343C124.541 80.9618 125.038 78.7341 125.038 76.2514C125.038 73.3016 124.366 70.8907 123.023 69.0223C121.687 67.154 119.918 66.2198 117.708 66.2198C116.54 66.2198 115.305 66.4785 114.001 66.9959L106.811 69.8703C106.307 70.0823 105.79 70.2655 105.258 70.4164C104.734 70.5709 104.146 70.6464 103.496 70.6464C102.887 70.6464 102.23 70.4811 101.523 70.1433C100.813 69.8092 100.083 69.3745 99.3272 68.8355C98.5718 68.2894 97.8305 67.6822 97.1031 67.0103C96.3757 66.3312 95.7322 65.6306 95.1727 64.912C93.0535 63.8197 90.3957 62.8353 87.1994 61.9514C83.9996 61.0711 80.1808 60.6076 75.743 60.5573C76.8516 61.125 77.8972 61.9011 78.8764 62.8856C79.8626 63.8736 80.7368 64.9623 81.4922 66.148C82.2476 67.3372 82.8386 68.6056 83.2687 69.9565C83.6953 71.3003 83.9122 72.6153 83.9122 73.9088C83.9122 75.8849 83.5694 77.6239 82.891 79.1258C82.2091 80.6204 81.2999 81.8851 80.1633 82.9199C79.0338 83.9547 77.7363 84.7308 76.2746 85.2482C74.8093 85.7655 73.2986 86.0242 71.7424 86.0242C69.9799 86.0242 68.0635 85.5464 65.9932 84.5871C63.93 83.6313 62.0136 82.3666 60.244 80.7929C58.4815 79.212 57.0058 77.4263 55.8238 75.4322C54.6383 73.4417 54.0473 71.4332 54.0473 69.4104C54.0473 67.3911 54.4739 65.5515 55.3342 63.8916C56.1909 62.2352 57.3974 60.8268 58.9571 59.6663C60.5238 58.4986 62.3877 57.5931 64.5524 56.95C66.7241 56.2997 69.0986 55.9727 71.6724 55.9727C76.0997 55.9727 80.1423 56.5727 83.8002 57.7692C87.4547 58.9585 90.6405 60.2986 93.3542 61.7933C93.2598 61.2759 93.2143 60.9166 93.2143 60.7154C93.2143 59.6806 93.592 58.8004 94.3474 58.071C95.1028 57.3452 96.1309 56.6985 97.4388 56.1308L108.406 51.3881C109.206 51.0252 109.846 50.6372 110.322 50.224C110.805 49.8144 111.049 49.2718 111.049 48.5999C111.049 48.0826 110.895 47.6442 110.588 47.2777C110.287 46.9148 109.916 46.7316 109.469 46.7316H50.732C50.2774 46.7316 49.8718 46.5807 49.5151 46.2717C49.1619 45.9555 48.8576 45.5675 48.6058 45.1076C48.354 44.6405 48.1687 44.159 48.0463 43.6704C47.9169 43.1746 47.8505 42.7434 47.8505 42.3769H106.671C107.266 42.3769 108.091 42.7039 109.147 43.3542C110.21 43.9974 111.259 44.7986 112.294 45.7543C113.329 46.7136 114.225 47.7376 114.98 48.8299C115.735 49.915 116.113 50.8707 116.113 51.7043C116.113 52.6923 115.697 53.5223 114.868 54.1906C114.036 54.8625 113.039 55.4553 111.875 55.9727L100.922 60.7154ZM78.6945 69.7266C78.6945 68.9505 78.5896 68.1385 78.3868 67.2834C78.191 66.421 77.8867 65.5803 77.4776 64.7539C77.0754 63.9203 76.5578 63.1443 75.9249 62.4257C75.2989 61.6999 74.5575 61.0999 73.7007 60.6292C71.6864 60.7945 69.805 61.2005 68.0635 61.8508C66.3289 62.4939 64.8322 63.3598 63.5732 64.4521C62.3143 65.5372 61.3141 66.8306 60.5798 68.3325C59.8524 69.8272 59.4887 71.4799 59.4887 73.2908C59.4887 75.9352 60.2301 77.9832 61.7128 79.4276C63.2026 80.8755 65.112 81.5977 67.434 81.5977C69.0916 81.5977 70.6023 81.3031 71.9662 80.7067C73.3266 80.1138 74.5121 79.291 75.5192 78.2347C76.5264 77.1712 77.3027 75.9172 77.8552 74.4693C78.4148 73.0141 78.6945 71.4332 78.6945 69.7266ZM119.442 46.7316C118.984 46.7316 118.579 46.5807 118.225 46.2717C117.879 45.9555 117.582 45.5675 117.33 45.1076C117.078 44.6405 116.872 44.159 116.715 43.6704C116.564 43.1746 116.491 42.7434 116.491 42.3769H134.186C134.634 42.3769 135.032 42.535 135.389 42.8512C135.742 43.1602 136.046 43.5482 136.298 44.0153C136.55 44.486 136.749 44.9639 136.9 45.4525C137.047 45.9411 137.123 46.3687 137.123 46.7316H119.442Z" fill="#A41212"/>
<path d="M112.028 106.217C110.119 106.217 108.503 106.368 107.188 106.677C105.873 106.993 104.565 107.36 103.257 107.784C102.502 107.101 101.859 106.282 101.327 105.326C100.795 104.367 100.432 103.447 100.236 102.567C101.393 102.154 102.565 101.834 103.747 101.604C104.932 101.374 106.23 101.259 107.636 101.259C110.21 101.259 112.584 101.694 114.756 102.567C116.92 103.447 118.921 104.6 120.757 106.03C122.596 107.457 124.296 109.099 125.862 110.96C127.419 112.828 128.905 114.743 130.325 116.709C130.073 117.273 129.667 117.557 129.108 117.557C127.8 115.897 126.555 114.37 125.373 112.972C124.191 111.582 122.953 110.378 121.666 109.365C120.379 108.359 118.959 107.583 117.4 107.036C115.833 106.49 114.042 106.217 112.028 106.217Z" fill="#A41212"/>
<path d="M191.4 46.7316V97.4499C190.393 97.4499 189.407 97.2666 188.448 96.9038C187.487 96.5409 186.658 95.9193 185.958 95.0354V65.918L164.71 81.8421C163.703 81.4217 162.829 80.7606 162.095 79.8587C161.367 78.9497 160.878 78.1844 160.626 77.5592L170.907 69.8703C169.795 67.1792 168.183 65.1096 166.067 63.6617C163.958 62.2173 161.594 61.4915 158.975 61.4915C157.052 61.4915 155.219 61.8436 153.478 62.5407C151.743 63.2413 150.219 64.2761 148.904 65.645C147.596 67.0175 146.54 68.7277 145.728 70.7757C144.924 72.8165 144.525 75.2094 144.525 77.9473C144.525 80.2863 144.826 82.3882 145.435 84.2565C146.04 86.1177 146.935 87.8495 148.12 89.4591C149.302 91.0616 150.778 92.5742 152.541 94.0006C154.303 95.4199 156.317 96.8283 158.583 98.226C158.489 98.7901 158.213 99.232 157.758 99.5482C155.996 98.6068 154.027 97.378 151.855 95.8546C149.69 94.3312 147.662 92.506 145.77 90.3789C143.885 88.2519 142.287 85.8338 140.972 83.1211C139.664 80.4013 139.014 77.358 139.014 73.995C139.014 71.1997 139.451 68.7134 140.329 66.536C141.214 64.3623 142.413 62.5371 143.924 61.0604C145.435 59.5872 147.159 58.4734 149.099 57.7261C151.037 56.9716 153.065 56.5907 155.184 56.5907C159.521 56.5907 163.123 57.7333 165.997 60.0112C168.868 62.2927 171.061 65.1671 172.572 68.6343L185.958 58.5309V46.7316H134.174C133.719 46.7316 133.317 46.5807 132.971 46.2717C132.618 45.9555 132.314 45.5675 132.062 45.1076C131.81 44.6405 131.611 44.1591 131.46 43.6704C131.303 43.1746 131.222 42.7434 131.222 42.3769H199.863C200.317 42.3769 200.72 42.535 201.066 42.8512C201.419 43.1602 201.723 43.5483 201.975 44.0153C202.227 44.486 202.426 44.9639 202.577 45.4525C202.734 45.9412 202.814 46.3687 202.814 46.7316H191.4Z" fill="#A41212"/>
<path d="M168.105 109.637C168.105 108.035 168.448 106.576 169.127 105.254C169.809 103.932 170.756 102.803 171.966 101.876C173.18 100.946 174.592 100.224 176.205 99.7063C177.81 99.1889 179.572 98.9302 181.492 98.9302C184.311 98.9302 186.892 99.4189 189.242 100.396C191.585 101.381 193.802 102.882 195.9 104.895C197.991 106.914 199.992 109.479 201.901 112.583C203.81 115.695 205.751 119.374 207.72 123.621C207.514 124.031 207.262 124.275 206.965 124.354C206.664 124.429 206.363 124.469 206.056 124.469C204.394 120.847 202.744 117.714 201.104 115.07C199.464 112.433 197.788 110.259 196.082 108.545C194.368 106.838 192.592 105.57 190.752 104.736C188.916 103.91 186.962 103.5 184.891 103.5C183.129 103.5 181.517 103.774 180.051 104.32C178.59 104.866 177.352 105.602 176.345 106.533C175.337 107.46 174.561 108.549 174.008 109.795C173.449 111.039 173.169 112.361 173.169 113.762C173.169 115.936 173.918 117.657 175.407 118.921C176.89 120.186 178.764 120.819 181.031 120.819C182.748 120.819 184.388 120.362 185.954 119.453C187.514 118.551 188.696 117.456 189.507 116.162C190.459 116.478 191.378 116.97 192.263 117.642C193.141 118.311 193.858 119.065 194.417 119.899C193.561 121.498 192.316 122.748 190.682 123.65C189.042 124.559 187.262 125.015 185.339 125.015C183.475 125.015 181.527 124.519 179.492 123.535C177.45 122.558 175.586 121.314 173.897 119.813C172.211 118.307 170.826 116.651 169.742 114.84C168.651 113.029 168.105 111.294 168.105 109.637Z" fill="#A41212"/>
<path d="M220.8 89.919C219.184 89.919 217.394 89.4412 215.428 88.4818C213.459 87.5261 211.595 86.2542 209.833 84.6733C208.07 83.0924 206.595 81.3067 205.413 79.3126C204.227 77.3221 203.636 75.3136 203.636 73.2908C203.636 71.2715 204.028 69.4355 204.811 67.7864C205.595 66.13 206.703 64.718 208.14 63.5467C209.574 62.379 211.274 61.4735 213.232 60.8304C215.197 60.1801 217.366 59.8531 219.737 59.8531C222.16 59.8531 224.633 60.1406 227.15 60.7154V46.7316H200.615C200.16 46.7316 199.758 46.5807 199.412 46.2717C199.059 45.9555 198.754 45.5675 198.502 45.1076C198.251 44.6405 198.051 44.1591 197.901 43.6704C197.744 43.1746 197.663 42.7434 197.663 42.3769H263.128C263.583 42.3769 263.985 42.535 264.331 42.8512C264.684 43.1602 264.989 43.5483 265.24 44.0153C265.492 44.486 265.692 44.9639 265.842 45.4525C265.999 45.9412 266.08 46.3687 266.08 46.7316H254.665V97.4499C253.658 97.4499 252.672 97.2666 251.714 96.9037C250.752 96.5409 249.923 95.9193 249.224 95.0354V84.5583C249.224 82.4888 248.832 80.4731 248.049 78.5078C247.266 76.5352 246.153 74.71 244.72 73.0321C243.282 71.347 241.544 69.8703 239.502 68.6056C237.46 67.3337 235.155 66.3312 232.592 65.6019V75.7771C232.592 77.8 232.347 79.6791 231.864 81.4109C231.389 83.1463 230.668 84.6517 229.71 85.9237C228.759 87.1884 227.535 88.1728 226.045 88.8699C224.563 89.5705 222.814 89.919 220.8 89.919ZM232.592 62.3394C235.967 63.6904 239.075 65.4545 241.922 67.6283C244.776 69.8056 247.21 72.2848 249.224 75.0729V46.7316H232.592V62.3394ZM216.869 85.4925C218.583 85.4925 220.093 85.1835 221.401 84.5583C222.716 83.9367 223.786 83.0924 224.619 82.0289C225.447 80.9654 226.077 79.7258 226.507 78.3066C226.934 76.8802 227.15 75.3675 227.15 73.7651V64.5958C226.591 64.5491 226.007 64.5096 225.402 64.4809C224.804 64.4521 224.202 64.4377 223.597 64.4377C221.583 64.4377 219.688 64.736 217.918 65.3288C216.156 65.9252 214.617 66.766 213.302 67.8582C211.994 68.9433 210.966 70.2727 210.211 71.8536C209.455 73.4345 209.078 75.2094 209.078 77.1712C209.078 79.8156 209.794 81.8672 211.232 83.3223C212.666 84.7703 214.547 85.4925 216.869 85.4925Z" fill="#A41212"/>
</svg>
